<svg id="Capa_1" enable-background="new 0 0 512 512" height="512" viewBox="0 0 512 512" width="512" xmlns="http://www.w3.org/2000/svg"><g><g><path d="m427.726 318.834h-108.54c-4.142 0-7.5 3.357-7.5 7.5s3.358 7.5 7.5 7.5h32.521c-64.999 53.634-80.824 123.957-84.647 153.403-.722 5.566-5.477 9.763-11.06 9.763s-10.338-4.197-11.06-9.763c-3.823-29.446-19.648-99.77-84.647-153.403h123.859c4.142 0 7.5-3.357 7.5-7.5s-3.358-7.5-7.5-7.5h-199.878c-4.142 0-7.5 3.357-7.5 7.5s3.358 7.5 7.5 7.5h11.198c-8.991 9.662-8.81 24.824.597 34.231v.001c4.81 4.81 11.128 7.214 17.446 7.214s12.636-2.404 17.446-7.215c4.995-4.995 8.245-11.512 10.367-17.907l14.051 28.102c1.314 2.628 3.962 4.147 6.714 4.147 1.127 0 2.271-.256 3.348-.794 3.705-1.853 5.207-6.357 3.354-10.062l-9.242-18.484c53.557 49.114 67.108 109.89 70.512 136.102 1.689 13.016 12.839 22.831 25.935 22.831s24.246-9.815 25.935-22.831c3.403-26.212 16.954-86.988 70.512-136.102l-9.242 18.484c-1.853 3.705-.351 8.21 3.354 10.062 1.077.539 2.221.794 3.348.794 2.751 0 5.4-1.52 6.714-4.147l14.051-28.102c2.121 6.396 5.372 12.913 10.367 17.908 4.81 4.81 11.128 7.214 17.446 7.214s12.636-2.404 17.446-7.214v-.001c9.407-9.408 9.588-24.569.597-34.231h11.198c4.142 0 7.5-3.357 7.5-7.5s-3.358-7.5-7.5-7.5zm-307.371 38.625c-3.771 3.771-9.908 3.771-13.68 0v.001c-3.771-3.772-3.771-9.909 0-13.68 5.575-5.575 15.422-8.178 22.944-9.266-1.087 7.527-3.69 17.371-9.264 22.945zm284.97 0c-3.771 3.771-9.908 3.77-13.68.001-5.579-5.58-8.182-15.438-9.268-22.964 7.507 1.075 17.336 3.673 22.948 9.284 3.771 3.771 3.771 9.908 0 13.679z"/><path d="m469.954 233.397-34.8-20.752c-.493-16.332-3.786-32.094-9.825-46.911-1.563-3.837-5.942-5.679-9.776-4.114-3.836 1.563-5.678 5.94-4.115 9.776 5.591 13.719 8.54 28.374 8.773 43.59-3.758 6.07-20.553 28.807-61.177 28.807-39.032 0-67.99-21.389-77.338-29.275 2.296-7.192 7.986-22.632 18.775-38.946 18.764-28.376 43.664-46.394 74.042-53.598 3.937 3.063 12.054 9.993 20.41 20.825 2.531 3.279 7.24 3.887 10.519 1.357 3.28-2.53 3.887-7.24 1.357-10.519-10.436-13.527-20.667-21.743-24.674-24.712l-50.684-104.69c-1.805-3.728-6.29-5.286-10.018-3.481s-5.288 6.29-3.482 10.018l47.487 98.086c-31.504 8.968-58.25 29.174-77.767 58.896-11.37 17.315-17.446 33.444-20.102 41.695h-23.115c-2.655-8.251-8.732-24.38-20.102-41.695-19.517-29.722-46.264-49.928-77.767-58.896l47.487-98.086c1.805-3.728.246-8.214-3.482-10.018-3.729-1.81-8.214-.247-10.018 3.481l-50.685 104.691c-4.007 2.968-14.238 11.185-24.674 24.712-2.53 3.279-1.922 7.989 1.357 10.519s7.99 1.923 10.519-1.357c8.292-10.748 16.467-17.735 20.42-20.822 30.376 7.204 55.269 25.222 74.032 53.595 10.798 16.328 16.487 31.778 18.78 38.96-9.313 7.898-38.135 29.262-77.343 29.262-40.677 0-57.463-22.797-61.177-28.802.232-15.219 3.181-29.875 8.773-43.595 1.563-3.836-.279-8.213-4.115-9.776-3.834-1.563-8.212.279-9.776 4.114-6.038 14.816-9.332 30.578-9.825 46.911l-34.8 20.752c-3.558 2.121-4.722 6.725-2.6 10.282 1.403 2.354 3.894 3.66 6.449 3.66 1.307 0 2.63-.342 3.834-1.06l32.213-19.209c8.351 11.068 29.498 31.723 71.024 31.723 46.881 0 79.929-26.402 88.812-34.345h28.444c8.883 7.943 41.932 34.345 88.812 34.345 41.526 0 62.672-20.654 71.024-31.723l32.213 19.209c1.204.718 2.527 1.06 3.834 1.06 2.555 0 5.045-1.306 6.449-3.66 2.119-3.559.955-8.163-2.602-10.284z"/></g></g></svg>