<svg id="Capa_1" enable-background="new 0 0 512.001 512.001" height="512" viewBox="0 0 512.001 512.001" width="512" xmlns="http://www.w3.org/2000/svg"><g><circle cx="376" cy="241" r="10"/><path d="m436.619 205.997c-5.627-9.739-16.871-14.782-32.022-14.525-6.513-11.737-15.085-18.722-24.768-20.177-17.108-53.55-66.929-90.295-123.829-90.295-71.682 0-130 58.318-130 130v50.492c-59.998 5.685-120.063 59.687-122.726 62.109-3.057 2.779-4.09 7.152-2.601 11.005s5.196 6.394 9.327 6.394c56.795 0 86.13 20.954 117.188 43.137 32.255 23.04 65.608 46.863 128.812 46.863 34.473 0 63.492-7.103 91.323-22.354 4.843-2.654 6.618-8.732 3.964-13.575s-8.732-6.617-13.575-3.964c-25.107 13.758-50.307 19.893-81.712 19.893-56.795 0-86.13-20.954-117.188-43.137-27.404-19.574-55.599-39.715-102.223-45.33 23.167-16.99 62.944-41.533 99.411-41.533h183.146c6.238 6.457 15.968 9.749 28.258 9.528 7.36 13.263 17.345 20.472 28.596 20.472 11.252 0 21.239-7.21 28.599-20.477 4.087.065 7.909-.263 11.433-.977 22.059 8.708 43.554 22.378 58.615 33.086-22.086 2.765-42.046 9.091-61.397 19.336-4.881 2.584-6.743 8.636-4.159 13.517s8.636 6.742 13.517 4.159c24.025-12.719 49.252-18.644 79.392-18.644 4.187 0 7.93-2.608 9.38-6.535 1.451-3.927.302-8.342-2.879-11.064-1.539-1.317-33.92-28.826-72.207-46.868.108-.177.221-.35.324-.53 5.629-9.742 4.381-21.995-3.428-35.003 7.809-13.008 9.058-25.261 3.429-35.003zm-124.644 55.003h-165.975v-40h165.975c.365 6.27 2.647 13.024 6.835 20-4.187 6.976-6.469 13.73-6.835 20zm-165.515-60c5.07-55.985 52.258-100 109.541-100 47.724 0 89.546 30.549 104.375 75.205-4.897 3.463-9.267 8.596-12.969 15.267-12.296-.214-22.022 3.073-28.259 9.528zm266.668 45.957c5.865 7.907 8.288 15.381 6.168 19.049-.874 1.516-2.685 2.688-5.381 3.481-.006.002-.011.003-.017.005-3.675 1.09-8.576 1.325-14.177.683-4.379-.505-8.565 1.917-10.316 5.958-3.914 9.032-9.176 14.867-13.405 14.867s-9.491-5.835-13.405-14.867c-1.598-3.687-5.225-6.024-9.171-6.024-.379 0-.763.022-1.147.066-9.778 1.125-17.462-.516-19.579-4.179-2.114-3.659.309-11.132 6.174-19.04 2.624-3.538 2.624-8.376 0-11.914-5.865-7.907-8.288-15.381-6.173-19.04 2.116-3.663 9.803-5.304 19.579-4.178 4.382.503 8.564-1.915 10.316-5.955 2.288-5.274 7.756-14.869 13.406-14.869 4.229 0 9.491 5.835 13.405 14.867 1.751 4.042 5.937 6.455 10.318 5.958 9.779-1.124 17.462.516 19.579 4.179 2.114 3.659-.309 11.132-6.174 19.04-2.623 3.537-2.623 8.375 0 11.913z"/><circle cx="380" cy="375" r="10"/></g></svg>