<?xml version="1.0" encoding="iso-8859-1"?>
<!-- Generator: Adobe Illustrator 19.0.0, SVG Export Plug-In . SVG Version: 6.00 Build 0)  -->
<svg version="1.1" id="Layer_1" xmlns="http://www.w3.org/2000/svg" xmlns:xlink="http://www.w3.org/1999/xlink" x="0px" y="0px"
	 viewBox="0 0 512 512" style="enable-background:new 0 0 512 512;" xml:space="preserve">
<g>
	<g>
		<path d="M511.252,416.677l-4.735-10.416c-5.864-12.899-17.049-22.495-30.688-26.331l-100.872-28.371
			c-1.352-0.381-2.779-0.413-4.148-0.096l-20.92,4.851c-35.098,8.138-72.074-6.559-92.006-36.573L119.462,111.304
			c-2.552-3.843-7.733-4.89-11.578-2.337c-3.842,2.552-4.889,7.736-2.337,11.578l138.421,208.436
			c23.766,35.786,67.848,53.31,109.695,43.605l18.833-4.366l98.811,27.792c8.89,2.5,16.18,8.755,20.002,17.162l0.085,0.186
			l-225.711,30.422c-23.553,3.17-46.84-9.737-56.611-31.403c-44.485-98.652-80.248-141.871-102.489-160.765
			c-36.868-36.774-74.412-54.553-85.454-59.289c-3.443-7.796-4.928-16.044-4.275-24.034c1.922-23.478,13.428-58.795,56.347-96.451
			l18.681,28.129c2.552,3.843,7.734,4.89,11.578,2.337c3.842-2.551,4.889-7.735,2.337-11.577L81.923,54.777
			c-1.306-1.965-3.381-3.287-5.715-3.639c-2.336-0.352-4.706,0.301-6.531,1.795C16.402,96.524,2.492,138.983,0.207,166.926
			c-0.981,11.999,1.541,24.331,7.293,35.66c38.543,75.919,35.678,247.583,35.645,249.307c-0.043,2.243,0.817,4.409,2.389,6.01
			c1.571,1.601,3.719,2.504,5.962,2.504h25.943c2.266,0,4.434-0.921,6.009-2.551c1.575-1.63,2.418-3.83,2.339-6.095l-3.537-100.767
			c-0.161-4.61-4.078-8.245-8.639-8.053c-4.61,0.161-8.216,4.03-8.053,8.639l3.233,92.122h-8.876
			c0.027-15.386-0.322-49.909-3.382-89.409c-4.536-58.549-12.968-104.9-25.123-138.256c12.183,6.661,28.842,17.053,46.34,31.794
			c0,0-0.002,0-0.002,0.001c-9.604,4.664-15.335,14.179-14.959,24.831l1.872,53.336c0.161,4.609,4.058,8.226,8.639,8.053
			c4.61-0.161,8.216-4.03,8.053-8.639l-1.872-53.337c-0.209-5.944,4.205-8.559,5.563-9.218c1.336-0.649,6.048-2.477,10.509,1.296
			c39.874,33.701,78.7,111.633,98.296,155.087c11.491,25.487,37.266,41.717,64.756,41.715c3.087,0,6.2-0.205,9.313-0.625
			l236.849-31.923c2.618-0.353,4.914-1.923,6.194-4.235C512.235,421.863,512.345,419.082,511.252,416.677z"/>
	</g>
</g>
<g>
</g>
<g>
</g>
<g>
</g>
<g>
</g>
<g>
</g>
<g>
</g>
<g>
</g>
<g>
</g>
<g>
</g>
<g>
</g>
<g>
</g>
<g>
</g>
<g>
</g>
<g>
</g>
<g>
</g>
</svg>
